<svg xmlns="http://www.w3.org/2000/svg" width="46" height="64" viewBox="0 0 46 64" role="img" aria-label="Natiiva — símbolo, negativo sobre ferrugem">
  <title>Natiiva — símbolo, negativo sobre ferrugem</title>
  <path d="M20 15.36 V3 A3 3 0 0 1 17 0 H7 L0 7 V15.36 Z" fill="#C9A227"></path>
  <path d="M0 15.36 H20 V61 A3 3 0 0 1 17 64 H3 A3 3 0 0 1 0 61 Z" fill="#FAF5EC"></path>
  <path d="M26 15.36 V3 A3 3 0 0 1 29 0 H39 L46 7 V15.36 Z" fill="#C9A227"></path>
  <path d="M26 15.36 H46 V61 A3 3 0 0 1 43 64 H29 A3 3 0 0 1 26 61 Z" fill="#FAF5EC"></path>
</svg>